<svg width="644" height="401" viewBox="0 0 644 401" fill="none" xmlns="http://www.w3.org/2000/svg">
<rect width="644" height="401" fill="#EEEEEE"/>
<path d="M150.266 193.293C150.16 194.195 149.826 194.893 149.264 195.385C148.705 195.873 147.961 196.117 147.031 196.117C146.023 196.117 145.215 195.756 144.605 195.033C144 194.311 143.697 193.344 143.697 192.133V191.312C143.697 190.52 143.838 189.822 144.119 189.221C144.404 188.619 144.807 188.158 145.326 187.838C145.846 187.514 146.447 187.352 147.131 187.352C148.037 187.352 148.764 187.605 149.311 188.113C149.857 188.617 150.176 189.316 150.266 190.211H149.135C149.037 189.531 148.824 189.039 148.496 188.734C148.172 188.43 147.717 188.277 147.131 188.277C146.412 188.277 145.848 188.543 145.438 189.074C145.031 189.605 144.828 190.361 144.828 191.342V192.168C144.828 193.094 145.021 193.83 145.408 194.377C145.795 194.924 146.336 195.197 147.031 195.197C147.656 195.197 148.135 195.057 148.467 194.775C148.803 194.49 149.025 193.996 149.135 193.293H150.266ZM155.551 195.373C155.129 195.869 154.51 196.117 153.693 196.117C153.018 196.117 152.502 195.922 152.146 195.531C151.795 195.137 151.617 194.555 151.613 193.785V189.66H152.697V193.756C152.697 194.717 153.088 195.197 153.869 195.197C154.697 195.197 155.248 194.889 155.521 194.271V189.66H156.605V196H155.574L155.551 195.373ZM161.322 190.633C161.158 190.605 160.98 190.592 160.789 190.592C160.078 190.592 159.596 190.895 159.342 191.5V196H158.258V189.66H159.312L159.33 190.393C159.686 189.826 160.189 189.543 160.842 189.543C161.053 189.543 161.213 189.57 161.322 189.625V190.633ZM165.389 190.633C165.225 190.605 165.047 190.592 164.855 190.592C164.145 190.592 163.662 190.895 163.408 191.5V196H162.324V189.66H163.379L163.396 190.393C163.752 189.826 164.256 189.543 164.908 189.543C165.119 189.543 165.279 189.57 165.389 189.625V190.633ZM168.904 196.117C168.045 196.117 167.346 195.836 166.807 195.273C166.268 194.707 165.998 193.951 165.998 193.006V192.807C165.998 192.178 166.117 191.617 166.355 191.125C166.598 190.629 166.934 190.242 167.363 189.965C167.797 189.684 168.266 189.543 168.77 189.543C169.594 189.543 170.234 189.814 170.691 190.357C171.148 190.9 171.377 191.678 171.377 192.689V193.141H167.082C167.098 193.766 167.279 194.271 167.627 194.658C167.979 195.041 168.424 195.232 168.963 195.232C169.346 195.232 169.67 195.154 169.936 194.998C170.201 194.842 170.434 194.635 170.633 194.377L171.295 194.893C170.764 195.709 169.967 196.117 168.904 196.117ZM168.77 190.434C168.332 190.434 167.965 190.594 167.668 190.914C167.371 191.23 167.188 191.676 167.117 192.25H170.293V192.168C170.262 191.617 170.113 191.191 169.848 190.891C169.582 190.586 169.223 190.434 168.77 190.434ZM173.662 189.66L173.697 190.457C174.182 189.848 174.814 189.543 175.596 189.543C176.936 189.543 177.611 190.299 177.623 191.811V196H176.539V191.805C176.535 191.348 176.43 191.01 176.223 190.791C176.02 190.572 175.701 190.463 175.268 190.463C174.916 190.463 174.607 190.557 174.342 190.744C174.076 190.932 173.869 191.178 173.721 191.482V196H172.637V189.66H173.662ZM180.729 188.125V189.66H181.912V190.498H180.729V194.43C180.729 194.684 180.781 194.875 180.887 195.004C180.992 195.129 181.172 195.191 181.426 195.191C181.551 195.191 181.723 195.168 181.941 195.121V196C181.656 196.078 181.379 196.117 181.109 196.117C180.625 196.117 180.26 195.971 180.014 195.678C179.768 195.385 179.645 194.969 179.645 194.43V190.498H178.49V189.66H179.645V188.125H180.729ZM187.631 188.125V189.66H188.814V190.498H187.631V194.43C187.631 194.684 187.684 194.875 187.789 195.004C187.895 195.129 188.074 195.191 188.328 195.191C188.453 195.191 188.625 195.168 188.844 195.121V196C188.559 196.078 188.281 196.117 188.012 196.117C187.527 196.117 187.162 195.971 186.916 195.678C186.67 195.385 186.547 194.969 186.547 194.43V190.498H185.393V189.66H186.547V188.125H187.631ZM194 196C193.938 195.875 193.887 195.652 193.848 195.332C193.344 195.855 192.742 196.117 192.043 196.117C191.418 196.117 190.904 195.941 190.502 195.59C190.104 195.234 189.904 194.785 189.904 194.242C189.904 193.582 190.154 193.07 190.654 192.707C191.158 192.34 191.865 192.156 192.775 192.156H193.83V191.658C193.83 191.279 193.717 190.979 193.49 190.756C193.264 190.529 192.93 190.416 192.488 190.416C192.102 190.416 191.777 190.514 191.516 190.709C191.254 190.904 191.123 191.141 191.123 191.418H190.033C190.033 191.102 190.145 190.797 190.367 190.504C190.594 190.207 190.898 189.973 191.281 189.801C191.668 189.629 192.092 189.543 192.553 189.543C193.283 189.543 193.855 189.727 194.27 190.094C194.684 190.457 194.898 190.959 194.914 191.6V194.518C194.914 195.1 194.988 195.562 195.137 195.906V196H194ZM192.201 195.174C192.541 195.174 192.863 195.086 193.168 194.91C193.473 194.734 193.693 194.506 193.83 194.225V192.924H192.98C191.652 192.924 190.988 193.312 190.988 194.09C190.988 194.43 191.102 194.695 191.328 194.887C191.555 195.078 191.846 195.174 192.201 195.174ZM198.383 193.064L197.703 193.773V196H196.619V187H197.703V192.443L198.283 191.746L200.258 189.66H201.576L199.109 192.309L201.863 196H200.592L198.383 193.064ZM206.387 194.318C206.387 194.025 206.275 193.799 206.053 193.639C205.834 193.475 205.449 193.334 204.898 193.217C204.352 193.1 203.916 192.959 203.592 192.795C203.271 192.631 203.033 192.436 202.877 192.209C202.725 191.982 202.648 191.713 202.648 191.4C202.648 190.881 202.867 190.441 203.305 190.082C203.746 189.723 204.309 189.543 204.992 189.543C205.711 189.543 206.293 189.729 206.738 190.1C207.188 190.471 207.412 190.945 207.412 191.523H206.322C206.322 191.227 206.195 190.971 205.941 190.756C205.691 190.541 205.375 190.434 204.992 190.434C204.598 190.434 204.289 190.52 204.066 190.691C203.844 190.863 203.732 191.088 203.732 191.365C203.732 191.627 203.836 191.824 204.043 191.957C204.25 192.09 204.623 192.217 205.162 192.338C205.705 192.459 206.145 192.604 206.48 192.771C206.816 192.939 207.064 193.143 207.225 193.381C207.389 193.615 207.471 193.902 207.471 194.242C207.471 194.809 207.244 195.264 206.791 195.607C206.338 195.947 205.75 196.117 205.027 196.117C204.52 196.117 204.07 196.027 203.68 195.848C203.289 195.668 202.982 195.418 202.76 195.098C202.541 194.773 202.432 194.424 202.432 194.049H203.516C203.535 194.412 203.68 194.701 203.949 194.916C204.223 195.127 204.582 195.232 205.027 195.232C205.438 195.232 205.766 195.15 206.012 194.986C206.262 194.818 206.387 194.596 206.387 194.318ZM212.885 189.66L212.92 190.457C213.404 189.848 214.037 189.543 214.818 189.543C216.158 189.543 216.834 190.299 216.846 191.811V196H215.762V191.805C215.758 191.348 215.652 191.01 215.445 190.791C215.242 190.572 214.924 190.463 214.49 190.463C214.139 190.463 213.83 190.557 213.564 190.744C213.299 190.932 213.092 191.178 212.943 191.482V196H211.859V189.66H212.885ZM222.395 196C222.332 195.875 222.281 195.652 222.242 195.332C221.738 195.855 221.137 196.117 220.438 196.117C219.812 196.117 219.299 195.941 218.896 195.59C218.498 195.234 218.299 194.785 218.299 194.242C218.299 193.582 218.549 193.07 219.049 192.707C219.553 192.34 220.26 192.156 221.17 192.156H222.225V191.658C222.225 191.279 222.111 190.979 221.885 190.756C221.658 190.529 221.324 190.416 220.883 190.416C220.496 190.416 220.172 190.514 219.91 190.709C219.648 190.904 219.518 191.141 219.518 191.418H218.428C218.428 191.102 218.539 190.797 218.762 190.504C218.988 190.207 219.293 189.973 219.676 189.801C220.062 189.629 220.486 189.543 220.947 189.543C221.678 189.543 222.25 189.727 222.664 190.094C223.078 190.457 223.293 190.959 223.309 191.6V194.518C223.309 195.1 223.383 195.562 223.531 195.906V196H222.395ZM220.596 195.174C220.936 195.174 221.258 195.086 221.562 194.91C221.867 194.734 222.088 194.506 222.225 194.225V192.924H221.375C220.047 192.924 219.383 193.312 219.383 194.09C219.383 194.43 219.496 194.695 219.723 194.887C219.949 195.078 220.24 195.174 220.596 195.174ZM226.027 189.66L226.057 190.363C226.521 189.816 227.148 189.543 227.938 189.543C228.824 189.543 229.428 189.883 229.748 190.562C229.959 190.258 230.232 190.012 230.568 189.824C230.908 189.637 231.309 189.543 231.77 189.543C233.16 189.543 233.867 190.279 233.891 191.752V196H232.807V191.816C232.807 191.363 232.703 191.025 232.496 190.803C232.289 190.576 231.941 190.463 231.453 190.463C231.051 190.463 230.717 190.584 230.451 190.826C230.186 191.064 230.031 191.387 229.988 191.793V196H228.898V191.846C228.898 190.924 228.447 190.463 227.545 190.463C226.834 190.463 226.348 190.766 226.086 191.371V196H225.002V189.66H226.027ZM238.162 196.117C237.303 196.117 236.604 195.836 236.064 195.273C235.525 194.707 235.256 193.951 235.256 193.006V192.807C235.256 192.178 235.375 191.617 235.613 191.125C235.855 190.629 236.191 190.242 236.621 189.965C237.055 189.684 237.523 189.543 238.027 189.543C238.852 189.543 239.492 189.814 239.949 190.357C240.406 190.9 240.635 191.678 240.635 192.689V193.141H236.34C236.355 193.766 236.537 194.271 236.885 194.658C237.236 195.041 237.682 195.232 238.221 195.232C238.604 195.232 238.928 195.154 239.193 194.998C239.459 194.842 239.691 194.635 239.891 194.377L240.553 194.893C240.021 195.709 239.225 196.117 238.162 196.117ZM238.027 190.434C237.59 190.434 237.223 190.594 236.926 190.914C236.629 191.23 236.445 191.676 236.375 192.25H239.551V192.168C239.52 191.617 239.371 191.191 239.105 190.891C238.84 190.586 238.48 190.434 238.027 190.434ZM241.918 195.432C241.918 195.244 241.973 195.088 242.082 194.963C242.195 194.838 242.363 194.775 242.586 194.775C242.809 194.775 242.977 194.838 243.09 194.963C243.207 195.088 243.266 195.244 243.266 195.432C243.266 195.611 243.207 195.762 243.09 195.883C242.977 196.004 242.809 196.064 242.586 196.064C242.363 196.064 242.195 196.004 242.082 195.883C241.973 195.762 241.918 195.611 241.918 195.432ZM245.082 195.432C245.082 195.244 245.137 195.088 245.246 194.963C245.359 194.838 245.527 194.775 245.75 194.775C245.973 194.775 246.141 194.838 246.254 194.963C246.371 195.088 246.43 195.244 246.43 195.432C246.43 195.611 246.371 195.762 246.254 195.883C246.141 196.004 245.973 196.064 245.75 196.064C245.527 196.064 245.359 196.004 245.246 195.883C245.137 195.762 245.082 195.611 245.082 195.432ZM248.246 195.432C248.246 195.244 248.301 195.088 248.41 194.963C248.523 194.838 248.691 194.775 248.914 194.775C249.137 194.775 249.305 194.838 249.418 194.963C249.535 195.088 249.594 195.244 249.594 195.432C249.594 195.611 249.535 195.762 249.418 195.883C249.305 196.004 249.137 196.064 248.914 196.064C248.691 196.064 248.523 196.004 248.41 195.883C248.301 195.762 248.246 195.611 248.246 195.432Z" fill="black" fill-opacity="0.38"/>
<g filter="url(#filter0_d)">
<rect x="127" y="112" width="326" height="100" rx="4" fill="white"/>
<path d="M156.598 165H145.418V163.441L151.324 156.879C152.199 155.887 152.801 155.082 153.129 154.465C153.465 153.84 153.633 153.195 153.633 152.531C153.633 151.641 153.363 150.91 152.824 150.34C152.285 149.77 151.566 149.484 150.668 149.484C149.59 149.484 148.75 149.793 148.148 150.41C147.555 151.02 147.258 151.871 147.258 152.965H145.09C145.09 151.395 145.594 150.125 146.602 149.156C147.617 148.188 148.973 147.703 150.668 147.703C152.254 147.703 153.508 148.121 154.43 148.957C155.352 149.785 155.812 150.891 155.812 152.273C155.812 153.953 154.742 155.953 152.602 158.273L148.031 163.23H156.598V165ZM159.934 156.445L160.801 147.938H169.543V149.941H162.641L162.125 154.594C162.961 154.102 163.91 153.855 164.973 153.855C166.528 153.855 167.762 154.371 168.676 155.402C169.59 156.426 170.047 157.812 170.047 159.562C170.047 161.32 169.571 162.707 168.617 163.723C167.672 164.73 166.348 165.234 164.645 165.234C163.137 165.234 161.906 164.816 160.953 163.98C160 163.145 159.457 161.988 159.324 160.512H161.375C161.508 161.488 161.856 162.227 162.418 162.727C162.981 163.219 163.723 163.465 164.645 163.465C165.653 163.465 166.442 163.121 167.012 162.434C167.59 161.746 167.879 160.797 167.879 159.586C167.879 158.445 167.567 157.531 166.942 156.844C166.324 156.148 165.5 155.801 164.469 155.801C163.524 155.801 162.781 156.008 162.242 156.422L161.668 156.891L159.934 156.445ZM172.61 163.863C172.61 163.488 172.719 163.176 172.938 162.926C173.165 162.676 173.5 162.551 173.946 162.551C174.391 162.551 174.727 162.676 174.954 162.926C175.188 163.176 175.305 163.488 175.305 163.863C175.305 164.223 175.188 164.523 174.954 164.766C174.727 165.008 174.391 165.129 173.946 165.129C173.5 165.129 173.165 165.008 172.938 164.766C172.719 164.523 172.61 164.223 172.61 163.863ZM172.622 153.516C172.622 153.141 172.731 152.828 172.95 152.578C173.176 152.328 173.512 152.203 173.957 152.203C174.403 152.203 174.739 152.328 174.965 152.578C175.2 152.828 175.317 153.141 175.317 153.516C175.317 153.875 175.2 154.176 174.965 154.418C174.739 154.66 174.403 154.781 173.957 154.781C173.512 154.781 173.176 154.66 172.95 154.418C172.731 154.176 172.622 153.875 172.622 153.516ZM189.012 157.723C189.012 160.262 188.579 162.148 187.712 163.383C186.844 164.617 185.489 165.234 183.645 165.234C181.825 165.234 180.477 164.633 179.602 163.43C178.727 162.219 178.274 160.414 178.243 158.016V155.121C178.243 152.613 178.676 150.75 179.544 149.531C180.411 148.312 181.77 147.703 183.622 147.703C185.458 147.703 186.809 148.293 187.676 149.473C188.544 150.645 188.989 152.457 189.012 154.91V157.723ZM186.844 154.758C186.844 152.922 186.587 151.586 186.071 150.75C185.555 149.906 184.739 149.484 183.622 149.484C182.512 149.484 181.704 149.902 181.196 150.738C180.688 151.574 180.426 152.859 180.411 154.594V158.062C180.411 159.906 180.676 161.27 181.208 162.152C181.747 163.027 182.559 163.465 183.645 163.465C184.716 163.465 185.509 163.051 186.024 162.223C186.548 161.395 186.821 160.09 186.844 158.309V154.758ZM202.532 157.723C202.532 160.262 202.099 162.148 201.231 163.383C200.364 164.617 199.009 165.234 197.165 165.234C195.345 165.234 193.997 164.633 193.122 163.43C192.247 162.219 191.794 160.414 191.763 158.016V155.121C191.763 152.613 192.196 150.75 193.063 149.531C193.931 148.312 195.29 147.703 197.142 147.703C198.977 147.703 200.329 148.293 201.196 149.473C202.063 150.645 202.509 152.457 202.532 154.91V157.723ZM200.364 154.758C200.364 152.922 200.106 151.586 199.591 150.75C199.075 149.906 198.259 149.484 197.142 149.484C196.032 149.484 195.224 149.902 194.716 150.738C194.208 151.574 193.946 152.859 193.931 154.594V158.062C193.931 159.906 194.196 161.27 194.727 162.152C195.267 163.027 196.079 163.465 197.165 163.465C198.235 163.465 199.028 163.051 199.544 162.223C200.067 161.395 200.341 160.09 200.364 158.309V154.758Z" fill="black" fill-opacity="0.87"/>
<path d="M151.266 191.293C151.16 192.195 150.826 192.893 150.264 193.385C149.705 193.873 148.961 194.117 148.031 194.117C147.023 194.117 146.215 193.756 145.605 193.033C145 192.311 144.697 191.344 144.697 190.133V189.312C144.697 188.52 144.838 187.822 145.119 187.221C145.404 186.619 145.807 186.158 146.326 185.838C146.846 185.514 147.447 185.352 148.131 185.352C149.037 185.352 149.764 185.605 150.311 186.113C150.857 186.617 151.176 187.316 151.266 188.211H150.135C150.037 187.531 149.824 187.039 149.496 186.734C149.172 186.43 148.717 186.277 148.131 186.277C147.412 186.277 146.848 186.543 146.438 187.074C146.031 187.605 145.828 188.361 145.828 189.342V190.168C145.828 191.094 146.021 191.83 146.408 192.377C146.795 192.924 147.336 193.197 148.031 193.197C148.656 193.197 149.135 193.057 149.467 192.775C149.803 192.49 150.025 191.996 150.135 191.293H151.266ZM156.551 193.373C156.129 193.869 155.51 194.117 154.693 194.117C154.018 194.117 153.502 193.922 153.146 193.531C152.795 193.137 152.617 192.555 152.613 191.785V187.66H153.697V191.756C153.697 192.717 154.088 193.197 154.869 193.197C155.697 193.197 156.248 192.889 156.521 192.271V187.66H157.605V194H156.574L156.551 193.373ZM162.322 188.633C162.158 188.605 161.98 188.592 161.789 188.592C161.078 188.592 160.596 188.895 160.342 189.5V194H159.258V187.66H160.312L160.33 188.393C160.686 187.826 161.189 187.543 161.842 187.543C162.053 187.543 162.213 187.57 162.322 187.625V188.633ZM166.389 188.633C166.225 188.605 166.047 188.592 165.855 188.592C165.145 188.592 164.662 188.895 164.408 189.5V194H163.324V187.66H164.379L164.396 188.393C164.752 187.826 165.256 187.543 165.908 187.543C166.119 187.543 166.279 187.57 166.389 187.625V188.633ZM169.904 194.117C169.045 194.117 168.346 193.836 167.807 193.273C167.268 192.707 166.998 191.951 166.998 191.006V190.807C166.998 190.178 167.117 189.617 167.355 189.125C167.598 188.629 167.934 188.242 168.363 187.965C168.797 187.684 169.266 187.543 169.77 187.543C170.594 187.543 171.234 187.814 171.691 188.357C172.148 188.9 172.377 189.678 172.377 190.689V191.141H168.082C168.098 191.766 168.279 192.271 168.627 192.658C168.979 193.041 169.424 193.232 169.963 193.232C170.346 193.232 170.67 193.154 170.936 192.998C171.201 192.842 171.434 192.635 171.633 192.377L172.295 192.893C171.764 193.709 170.967 194.117 169.904 194.117ZM169.77 188.434C169.332 188.434 168.965 188.594 168.668 188.914C168.371 189.23 168.188 189.676 168.117 190.25H171.293V190.168C171.262 189.617 171.113 189.191 170.848 188.891C170.582 188.586 170.223 188.434 169.77 188.434ZM174.662 187.66L174.697 188.457C175.182 187.848 175.814 187.543 176.596 187.543C177.936 187.543 178.611 188.299 178.623 189.811V194H177.539V189.805C177.535 189.348 177.43 189.01 177.223 188.791C177.02 188.572 176.701 188.463 176.268 188.463C175.916 188.463 175.607 188.557 175.342 188.744C175.076 188.932 174.869 189.178 174.721 189.482V194H173.637V187.66H174.662ZM181.729 186.125V187.66H182.912V188.498H181.729V192.43C181.729 192.684 181.781 192.875 181.887 193.004C181.992 193.129 182.172 193.191 182.426 193.191C182.551 193.191 182.723 193.168 182.941 193.121V194C182.656 194.078 182.379 194.117 182.109 194.117C181.625 194.117 181.26 193.971 181.014 193.678C180.768 193.385 180.645 192.969 180.645 192.43V188.498H179.49V187.66H180.645V186.125H181.729ZM188.631 186.125V187.66H189.814V188.498H188.631V192.43C188.631 192.684 188.684 192.875 188.789 193.004C188.895 193.129 189.074 193.191 189.328 193.191C189.453 193.191 189.625 193.168 189.844 193.121V194C189.559 194.078 189.281 194.117 189.012 194.117C188.527 194.117 188.162 193.971 187.916 193.678C187.67 193.385 187.547 192.969 187.547 192.43V188.498H186.393V187.66H187.547V186.125H188.631ZM195 194C194.938 193.875 194.887 193.652 194.848 193.332C194.344 193.855 193.742 194.117 193.043 194.117C192.418 194.117 191.904 193.941 191.502 193.59C191.104 193.234 190.904 192.785 190.904 192.242C190.904 191.582 191.154 191.07 191.654 190.707C192.158 190.34 192.865 190.156 193.775 190.156H194.83V189.658C194.83 189.279 194.717 188.979 194.49 188.756C194.264 188.529 193.93 188.416 193.488 188.416C193.102 188.416 192.777 188.514 192.516 188.709C192.254 188.904 192.123 189.141 192.123 189.418H191.033C191.033 189.102 191.145 188.797 191.367 188.504C191.594 188.207 191.898 187.973 192.281 187.801C192.668 187.629 193.092 187.543 193.553 187.543C194.283 187.543 194.855 187.727 195.27 188.094C195.684 188.457 195.898 188.959 195.914 189.6V192.518C195.914 193.1 195.988 193.562 196.137 193.906V194H195ZM193.201 193.174C193.541 193.174 193.863 193.086 194.168 192.91C194.473 192.734 194.693 192.506 194.83 192.225V190.924H193.98C192.652 190.924 191.988 191.312 191.988 192.09C191.988 192.43 192.102 192.695 192.328 192.887C192.555 193.078 192.846 193.174 193.201 193.174ZM201.305 192.318C201.305 192.025 201.193 191.799 200.971 191.639C200.752 191.475 200.367 191.334 199.816 191.217C199.27 191.1 198.834 190.959 198.51 190.795C198.189 190.631 197.951 190.436 197.795 190.209C197.643 189.982 197.566 189.713 197.566 189.4C197.566 188.881 197.785 188.441 198.223 188.082C198.664 187.723 199.227 187.543 199.91 187.543C200.629 187.543 201.211 187.729 201.656 188.1C202.105 188.471 202.33 188.945 202.33 189.523H201.24C201.24 189.227 201.113 188.971 200.859 188.756C200.609 188.541 200.293 188.434 199.91 188.434C199.516 188.434 199.207 188.52 198.984 188.691C198.762 188.863 198.65 189.088 198.65 189.365C198.65 189.627 198.754 189.824 198.961 189.957C199.168 190.09 199.541 190.217 200.08 190.338C200.623 190.459 201.062 190.604 201.398 190.771C201.734 190.939 201.982 191.143 202.143 191.381C202.307 191.615 202.389 191.902 202.389 192.242C202.389 192.809 202.162 193.264 201.709 193.607C201.256 193.947 200.668 194.117 199.945 194.117C199.438 194.117 198.988 194.027 198.598 193.848C198.207 193.668 197.9 193.418 197.678 193.098C197.459 192.773 197.35 192.424 197.35 192.049H198.434C198.453 192.412 198.598 192.701 198.867 192.916C199.141 193.127 199.5 193.232 199.945 193.232C200.355 193.232 200.684 193.15 200.93 192.986C201.18 192.818 201.305 192.596 201.305 192.318ZM205.57 191.064L204.891 191.773V194H203.807V185H204.891V190.443L205.471 189.746L207.445 187.66H208.764L206.297 190.309L209.051 194H207.779L205.57 191.064ZM213.885 187.66L213.92 188.457C214.404 187.848 215.037 187.543 215.818 187.543C217.158 187.543 217.834 188.299 217.846 189.811V194H216.762V189.805C216.758 189.348 216.652 189.01 216.445 188.791C216.242 188.572 215.924 188.463 215.49 188.463C215.139 188.463 214.83 188.557 214.564 188.744C214.299 188.932 214.092 189.178 213.943 189.482V194H212.859V187.66H213.885ZM223.395 194C223.332 193.875 223.281 193.652 223.242 193.332C222.738 193.855 222.137 194.117 221.438 194.117C220.812 194.117 220.299 193.941 219.896 193.59C219.498 193.234 219.299 192.785 219.299 192.242C219.299 191.582 219.549 191.07 220.049 190.707C220.553 190.34 221.26 190.156 222.17 190.156H223.225V189.658C223.225 189.279 223.111 188.979 222.885 188.756C222.658 188.529 222.324 188.416 221.883 188.416C221.496 188.416 221.172 188.514 220.91 188.709C220.648 188.904 220.518 189.141 220.518 189.418H219.428C219.428 189.102 219.539 188.797 219.762 188.504C219.988 188.207 220.293 187.973 220.676 187.801C221.062 187.629 221.486 187.543 221.947 187.543C222.678 187.543 223.25 187.727 223.664 188.094C224.078 188.457 224.293 188.959 224.309 189.6V192.518C224.309 193.1 224.383 193.562 224.531 193.906V194H223.395ZM221.596 193.174C221.936 193.174 222.258 193.086 222.562 192.91C222.867 192.734 223.088 192.506 223.225 192.225V190.924H222.375C221.047 190.924 220.383 191.312 220.383 192.09C220.383 192.43 220.496 192.695 220.723 192.887C220.949 193.078 221.24 193.174 221.596 193.174ZM227.027 187.66L227.057 188.363C227.521 187.816 228.148 187.543 228.938 187.543C229.824 187.543 230.428 187.883 230.748 188.562C230.959 188.258 231.232 188.012 231.568 187.824C231.908 187.637 232.309 187.543 232.77 187.543C234.16 187.543 234.867 188.279 234.891 189.752V194H233.807V189.816C233.807 189.363 233.703 189.025 233.496 188.803C233.289 188.576 232.941 188.463 232.453 188.463C232.051 188.463 231.717 188.584 231.451 188.826C231.186 189.064 231.031 189.387 230.988 189.793V194H229.898V189.846C229.898 188.924 229.447 188.463 228.545 188.463C227.834 188.463 227.348 188.766 227.086 189.371V194H226.002V187.66H227.027ZM239.162 194.117C238.303 194.117 237.604 193.836 237.064 193.273C236.525 192.707 236.256 191.951 236.256 191.006V190.807C236.256 190.178 236.375 189.617 236.613 189.125C236.855 188.629 237.191 188.242 237.621 187.965C238.055 187.684 238.523 187.543 239.027 187.543C239.852 187.543 240.492 187.814 240.949 188.357C241.406 188.9 241.635 189.678 241.635 190.689V191.141H237.34C237.355 191.766 237.537 192.271 237.885 192.658C238.236 193.041 238.682 193.232 239.221 193.232C239.604 193.232 239.928 193.154 240.193 192.998C240.459 192.842 240.691 192.635 240.891 192.377L241.553 192.893C241.021 193.709 240.225 194.117 239.162 194.117ZM239.027 188.434C238.59 188.434 238.223 188.594 237.926 188.914C237.629 189.23 237.445 189.676 237.375 190.25H240.551V190.168C240.52 189.617 240.371 189.191 240.105 188.891C239.84 188.586 239.48 188.434 239.027 188.434ZM242.918 193.432C242.918 193.244 242.973 193.088 243.082 192.963C243.195 192.838 243.363 192.775 243.586 192.775C243.809 192.775 243.977 192.838 244.09 192.963C244.207 193.088 244.266 193.244 244.266 193.432C244.266 193.611 244.207 193.762 244.09 193.883C243.977 194.004 243.809 194.064 243.586 194.064C243.363 194.064 243.195 194.004 243.082 193.883C242.973 193.762 242.918 193.611 242.918 193.432ZM246.082 193.432C246.082 193.244 246.137 193.088 246.246 192.963C246.359 192.838 246.527 192.775 246.75 192.775C246.973 192.775 247.141 192.838 247.254 192.963C247.371 193.088 247.43 193.244 247.43 193.432C247.43 193.611 247.371 193.762 247.254 193.883C247.141 194.004 246.973 194.064 246.75 194.064C246.527 194.064 246.359 194.004 246.246 193.883C246.137 193.762 246.082 193.611 246.082 193.432ZM249.246 193.432C249.246 193.244 249.301 193.088 249.41 192.963C249.523 192.838 249.691 192.775 249.914 192.775C250.137 192.775 250.305 192.838 250.418 192.963C250.535 193.088 250.594 193.244 250.594 193.432C250.594 193.611 250.535 193.762 250.418 193.883C250.305 194.004 250.137 194.064 249.914 194.064C249.691 194.064 249.523 194.004 249.41 193.883C249.301 193.762 249.246 193.611 249.246 193.432Z" fill="black" fill-opacity="0.38"/>
<path d="M409 152V166L420 159L409 152Z" fill="black" fill-opacity="0.6"/>
</g>
<path d="M139.298 78.6299V85H137.977V69.3594H143.305C144.93 69.3594 146.212 69.7747 147.15 70.6055C148.096 71.4362 148.568 72.5785 148.568 74.0322C148.568 75.5003 148.114 76.6354 147.204 77.4375C146.302 78.2324 144.991 78.6299 143.272 78.6299H139.298ZM139.298 77.5127H143.305C144.587 77.5127 145.564 77.2083 146.237 76.5996C146.91 75.9909 147.247 75.1423 147.247 74.0537C147.247 72.9723 146.91 72.113 146.237 71.4756C145.571 70.8311 144.622 70.5016 143.391 70.4873H139.298V77.5127ZM150.373 79.0166C150.373 77.8994 150.588 76.8932 151.018 75.998C151.454 75.1029 152.067 74.4082 152.854 73.9141C153.649 73.4128 154.548 73.1621 155.551 73.1621C157.098 73.1621 158.351 73.7064 159.311 74.7949C160.27 75.8763 160.75 77.3122 160.75 79.1025V79.3711C160.75 80.4954 160.532 81.5088 160.095 82.4111C159.665 83.3063 159.056 83.9974 158.269 84.4844C157.481 84.9714 156.582 85.2148 155.572 85.2148C154.033 85.2148 152.779 84.6742 151.812 83.5928C150.853 82.5042 150.373 81.0648 150.373 79.2744V79.0166ZM151.662 79.3711C151.662 80.7604 152.02 81.9027 152.736 82.7979C153.46 83.6859 154.405 84.1299 155.572 84.1299C156.732 84.1299 157.671 83.6859 158.387 82.7979C159.11 81.9027 159.472 80.7246 159.472 79.2637V79.0166C159.472 78.1286 159.307 77.3158 158.978 76.5781C158.648 75.8405 158.186 75.2712 157.592 74.8701C156.997 74.4619 156.317 74.2578 155.551 74.2578C154.405 74.2578 153.47 74.709 152.747 75.6113C152.024 76.5065 151.662 77.681 151.662 79.1348V79.3711ZM164.585 73.377L164.628 75.2676C165.058 74.5658 165.595 74.0394 166.239 73.6885C166.884 73.3376 167.6 73.1621 168.388 73.1621C170.221 73.1621 171.385 73.9141 171.879 75.418C172.294 74.6947 172.849 74.1396 173.544 73.7529C174.239 73.359 175.005 73.1621 175.843 73.1621C178.335 73.1621 179.606 74.5228 179.656 77.2441V85H178.367V77.3408C178.36 76.3024 178.134 75.5326 177.69 75.0312C177.254 74.5299 176.537 74.2793 175.542 74.2793C174.618 74.2936 173.838 74.5944 173.2 75.1816C172.563 75.7617 172.208 76.4707 172.137 77.3086V85H170.848V77.2441C170.84 76.2487 170.604 75.5075 170.139 75.0205C169.68 74.5264 168.971 74.2793 168.012 74.2793C167.202 74.2793 166.508 74.512 165.928 74.9775C165.348 75.4359 164.918 76.1198 164.639 77.0293V85H163.35V73.377H164.585ZM182.213 79.0166C182.213 77.8994 182.428 76.8932 182.857 75.998C183.294 75.1029 183.907 74.4082 184.694 73.9141C185.489 73.4128 186.388 73.1621 187.391 73.1621C188.938 73.1621 190.191 73.7064 191.15 74.7949C192.11 75.8763 192.59 77.3122 192.59 79.1025V79.3711C192.59 80.4954 192.371 81.5088 191.935 82.4111C191.505 83.3063 190.896 83.9974 190.108 84.4844C189.321 84.9714 188.422 85.2148 187.412 85.2148C185.872 85.2148 184.619 84.6742 183.652 83.5928C182.693 82.5042 182.213 81.0648 182.213 79.2744V79.0166ZM183.502 79.3711C183.502 80.7604 183.86 81.9027 184.576 82.7979C185.299 83.6859 186.245 84.1299 187.412 84.1299C188.572 84.1299 189.51 83.6859 190.227 82.7979C190.95 81.9027 191.312 80.7246 191.312 79.2637V79.0166C191.312 78.1286 191.147 77.3158 190.817 76.5781C190.488 75.8405 190.026 75.2712 189.432 74.8701C188.837 74.4619 188.157 74.2578 187.391 74.2578C186.245 74.2578 185.31 74.709 184.587 75.6113C183.864 76.5065 183.502 77.681 183.502 79.1348V79.3711ZM194.738 79.0811C194.738 77.2764 195.139 75.8405 195.941 74.7734C196.751 73.6992 197.846 73.1621 199.229 73.1621C200.797 73.1621 201.993 73.7816 202.816 75.0205V68.5H204.095V85H202.892L202.838 83.4531C202.014 84.6276 200.804 85.2148 199.207 85.2148C197.868 85.2148 196.786 84.6777 195.963 83.6035C195.146 82.5221 194.738 81.0648 194.738 79.2314V79.0811ZM196.038 79.3066C196.038 80.7891 196.335 81.96 196.93 82.8193C197.524 83.6715 198.362 84.0977 199.443 84.0977C201.026 84.0977 202.15 83.3994 202.816 82.0029V76.5459C202.15 75.0348 201.033 74.2793 199.465 74.2793C198.383 74.2793 197.542 74.7054 196.94 75.5576C196.339 76.4027 196.038 77.6523 196.038 79.3066ZM206.77 79.0166C206.77 77.8994 206.984 76.8932 207.414 75.998C207.851 75.1029 208.463 74.4082 209.251 73.9141C210.046 73.4128 210.945 73.1621 211.947 73.1621C213.494 73.1621 214.747 73.7064 215.707 74.7949C216.667 75.8763 217.146 77.3122 217.146 79.1025V79.3711C217.146 80.4954 216.928 81.5088 216.491 82.4111C216.062 83.3063 215.453 83.9974 214.665 84.4844C213.877 84.9714 212.979 85.2148 211.969 85.2148C210.429 85.2148 209.176 84.6742 208.209 83.5928C207.249 82.5042 206.77 81.0648 206.77 79.2744V79.0166ZM208.059 79.3711C208.059 80.7604 208.417 81.9027 209.133 82.7979C209.856 83.6859 210.801 84.1299 211.969 84.1299C213.129 84.1299 214.067 83.6859 214.783 82.7979C215.507 81.9027 215.868 80.7246 215.868 79.2637V79.0166C215.868 78.1286 215.703 77.3158 215.374 76.5781C215.045 75.8405 214.583 75.2712 213.988 74.8701C213.394 74.4619 212.714 74.2578 211.947 74.2578C210.801 74.2578 209.867 74.709 209.144 75.6113C208.42 76.5065 208.059 77.681 208.059 79.1348V79.3711ZM225.182 74.4727C224.91 74.4225 224.619 74.3975 224.312 74.3975C223.509 74.3975 222.829 74.623 222.271 75.0742C221.719 75.5182 221.325 76.1663 221.089 77.0186V85H219.811V73.377H221.067L221.089 75.2246C221.769 73.8496 222.861 73.1621 224.365 73.1621C224.723 73.1621 225.006 73.2087 225.214 73.3018L225.182 74.4727ZM226.299 79.0166C226.299 77.8994 226.514 76.8932 226.943 75.998C227.38 75.1029 227.993 74.4082 228.78 73.9141C229.575 73.4128 230.474 73.1621 231.477 73.1621C233.023 73.1621 234.277 73.7064 235.236 74.7949C236.196 75.8763 236.676 77.3122 236.676 79.1025V79.3711C236.676 80.4954 236.457 81.5088 236.021 82.4111C235.591 83.3063 234.982 83.9974 234.194 84.4844C233.407 84.9714 232.508 85.2148 231.498 85.2148C229.958 85.2148 228.705 84.6742 227.738 83.5928C226.779 82.5042 226.299 81.0648 226.299 79.2744V79.0166ZM227.588 79.3711C227.588 80.7604 227.946 81.9027 228.662 82.7979C229.385 83.6859 230.331 84.1299 231.498 84.1299C232.658 84.1299 233.596 83.6859 234.312 82.7979C235.036 81.9027 235.397 80.7246 235.397 79.2637V79.0166C235.397 78.1286 235.233 77.3158 234.903 76.5781C234.574 75.8405 234.112 75.2712 233.518 74.8701C232.923 74.4619 232.243 74.2578 231.477 74.2578C230.331 74.2578 229.396 74.709 228.673 75.6113C227.95 76.5065 227.588 77.681 227.588 79.1348V79.3711ZM253.434 80.6172H246.333L244.722 85H243.336L249.255 69.3594H250.512L256.431 85H255.056L253.434 80.6172ZM246.741 79.4893H253.015L249.878 70.9707L246.741 79.4893ZM267.785 79.3066C267.785 81.1185 267.384 82.5579 266.582 83.625C265.78 84.6849 264.706 85.2148 263.359 85.2148C261.77 85.2148 260.552 84.6562 259.707 83.5391V89.4688H258.429V73.377H259.621L259.686 75.0205C260.523 73.7816 261.737 73.1621 263.327 73.1621C264.716 73.1621 265.805 73.6885 266.593 74.7412C267.388 75.7939 267.785 77.2549 267.785 79.124V79.3066ZM266.496 79.0811C266.496 77.5986 266.192 76.4277 265.583 75.5684C264.974 74.709 264.126 74.2793 263.037 74.2793C262.249 74.2793 261.573 74.4691 261.007 74.8486C260.441 75.2282 260.008 75.7796 259.707 76.5029V82.0781C260.015 82.7441 260.455 83.2526 261.028 83.6035C261.601 83.9544 262.278 84.1299 263.059 84.1299C264.14 84.1299 264.981 83.7002 265.583 82.8408C266.192 81.9743 266.496 80.721 266.496 79.0811ZM279.988 79.3066C279.988 81.1185 279.587 82.5579 278.785 83.625C277.983 84.6849 276.909 85.2148 275.562 85.2148C273.973 85.2148 272.755 84.6562 271.91 83.5391V89.4688H270.632V73.377H271.824L271.889 75.0205C272.727 73.7816 273.94 73.1621 275.53 73.1621C276.92 73.1621 278.008 73.6885 278.796 74.7412C279.591 75.7939 279.988 77.2549 279.988 79.124V79.3066ZM278.699 79.0811C278.699 77.5986 278.395 76.4277 277.786 75.5684C277.177 74.709 276.329 74.2793 275.24 74.2793C274.452 74.2793 273.776 74.4691 273.21 74.8486C272.644 75.2282 272.211 75.7796 271.91 76.5029V82.0781C272.218 82.7441 272.659 83.2526 273.231 83.6035C273.804 83.9544 274.481 84.1299 275.262 84.1299C276.343 84.1299 277.185 83.7002 277.786 82.8408C278.395 81.9743 278.699 80.721 278.699 79.0811Z" fill="black" fill-opacity="0.87"/>
<path d="M127 238C127 235.791 128.791 234 131 234H449C451.209 234 453 235.791 453 238V315H127V238Z" fill="#333333" fill-opacity="0.06"/>
<path d="M127 313.911H453V314.911H127V313.911Z" fill="black" fill-opacity="0.38"/>
<rect width="326" height="2" transform="translate(127 312.911)" fill="#1554F6"/>
<path d="M149.062 272H147.555V266.742H141.82V272H140.32V260.625H141.82V265.516H147.555V260.625H149.062V272ZM155.008 272.156C153.862 272.156 152.93 271.781 152.211 271.031C151.492 270.276 151.133 269.268 151.133 268.008V267.742C151.133 266.904 151.292 266.156 151.609 265.5C151.932 264.839 152.38 264.323 152.953 263.953C153.531 263.578 154.156 263.391 154.828 263.391C155.927 263.391 156.781 263.753 157.391 264.477C158 265.201 158.305 266.237 158.305 267.586V268.188H152.578C152.599 269.021 152.841 269.695 153.305 270.211C153.773 270.721 154.367 270.977 155.086 270.977C155.596 270.977 156.029 270.872 156.383 270.664C156.737 270.456 157.047 270.18 157.312 269.836L158.195 270.523C157.487 271.612 156.424 272.156 155.008 272.156ZM154.828 264.578C154.245 264.578 153.755 264.792 153.359 265.219C152.964 265.641 152.719 266.234 152.625 267H156.859V266.891C156.818 266.156 156.62 265.589 156.266 265.188C155.911 264.781 155.432 264.578 154.828 264.578ZM164.07 264.844C163.852 264.807 163.615 264.789 163.359 264.789C162.411 264.789 161.768 265.193 161.43 266V272H159.984V263.547H161.391L161.414 264.523C161.888 263.768 162.56 263.391 163.43 263.391C163.711 263.391 163.924 263.427 164.07 263.5V264.844ZM168.758 272.156C167.612 272.156 166.68 271.781 165.961 271.031C165.242 270.276 164.883 269.268 164.883 268.008V267.742C164.883 266.904 165.042 266.156 165.359 265.5C165.682 264.839 166.13 264.323 166.703 263.953C167.281 263.578 167.906 263.391 168.578 263.391C169.677 263.391 170.531 263.753 171.141 264.477C171.75 265.201 172.055 266.237 172.055 267.586V268.188H166.328C166.349 269.021 166.591 269.695 167.055 270.211C167.523 270.721 168.117 270.977 168.836 270.977C169.346 270.977 169.779 270.872 170.133 270.664C170.487 270.456 170.797 270.18 171.062 269.836L171.945 270.523C171.237 271.612 170.174 272.156 168.758 272.156ZM168.578 264.578C167.995 264.578 167.505 264.792 167.109 265.219C166.714 265.641 166.469 266.234 166.375 267H170.609V266.891C170.568 266.156 170.37 265.589 170.016 265.188C169.661 264.781 169.182 264.578 168.578 264.578ZM180.469 269.883L182.438 263.547H183.984L180.586 273.305C180.06 274.711 179.224 275.414 178.078 275.414L177.805 275.391L177.266 275.289V274.117L177.656 274.148C178.146 274.148 178.526 274.049 178.797 273.852C179.073 273.654 179.299 273.292 179.477 272.766L179.797 271.906L176.781 263.547H178.359L180.469 269.883ZM184.773 267.695C184.773 266.867 184.935 266.122 185.258 265.461C185.586 264.799 186.039 264.289 186.617 263.93C187.201 263.57 187.865 263.391 188.609 263.391C189.76 263.391 190.69 263.789 191.398 264.586C192.112 265.383 192.469 266.443 192.469 267.766V267.867C192.469 268.69 192.31 269.43 191.992 270.086C191.68 270.737 191.229 271.245 190.641 271.609C190.057 271.974 189.385 272.156 188.625 272.156C187.479 272.156 186.549 271.758 185.836 270.961C185.128 270.164 184.773 269.109 184.773 267.797V267.695ZM186.227 267.867C186.227 268.805 186.443 269.557 186.875 270.125C187.312 270.693 187.896 270.977 188.625 270.977C189.359 270.977 189.943 270.69 190.375 270.117C190.807 269.539 191.023 268.732 191.023 267.695C191.023 266.768 190.802 266.018 190.359 265.445C189.922 264.867 189.339 264.578 188.609 264.578C187.896 264.578 187.32 264.862 186.883 265.43C186.445 265.997 186.227 266.81 186.227 267.867ZM199.5 271.164C198.938 271.826 198.112 272.156 197.023 272.156C196.122 272.156 195.435 271.896 194.961 271.375C194.492 270.849 194.255 270.073 194.25 269.047V263.547H195.695V269.008C195.695 270.289 196.216 270.93 197.258 270.93C198.362 270.93 199.096 270.518 199.461 269.695V263.547H200.906V272H199.531L199.5 271.164ZM210.469 270.977C210.984 270.977 211.435 270.82 211.82 270.508C212.206 270.195 212.419 269.805 212.461 269.336H213.828C213.802 269.82 213.635 270.281 213.328 270.719C213.021 271.156 212.609 271.505 212.094 271.766C211.583 272.026 211.042 272.156 210.469 272.156C209.318 272.156 208.401 271.773 207.719 271.008C207.042 270.237 206.703 269.185 206.703 267.852V267.609C206.703 266.786 206.854 266.055 207.156 265.414C207.458 264.773 207.891 264.276 208.453 263.922C209.021 263.568 209.69 263.391 210.461 263.391C211.409 263.391 212.195 263.674 212.82 264.242C213.451 264.81 213.786 265.547 213.828 266.453H212.461C212.419 265.906 212.211 265.458 211.836 265.109C211.466 264.755 211.008 264.578 210.461 264.578C209.727 264.578 209.156 264.844 208.75 265.375C208.349 265.901 208.148 266.664 208.148 267.664V267.938C208.148 268.911 208.349 269.661 208.75 270.188C209.151 270.714 209.724 270.977 210.469 270.977ZM220.672 272C220.589 271.833 220.521 271.536 220.469 271.109C219.797 271.807 218.995 272.156 218.062 272.156C217.229 272.156 216.544 271.922 216.008 271.453C215.477 270.979 215.211 270.38 215.211 269.656C215.211 268.776 215.544 268.094 216.211 267.609C216.883 267.12 217.826 266.875 219.039 266.875H220.445V266.211C220.445 265.706 220.294 265.305 219.992 265.008C219.69 264.706 219.245 264.555 218.656 264.555C218.141 264.555 217.708 264.685 217.359 264.945C217.01 265.206 216.836 265.521 216.836 265.891H215.383C215.383 265.469 215.531 265.062 215.828 264.672C216.13 264.276 216.536 263.964 217.047 263.734C217.562 263.505 218.128 263.391 218.742 263.391C219.716 263.391 220.479 263.635 221.031 264.125C221.583 264.609 221.87 265.279 221.891 266.133V270.023C221.891 270.799 221.99 271.417 222.188 271.875V272H220.672ZM218.273 270.898C218.727 270.898 219.156 270.781 219.562 270.547C219.969 270.312 220.263 270.008 220.445 269.633V267.898H219.312C217.542 267.898 216.656 268.417 216.656 269.453C216.656 269.906 216.807 270.26 217.109 270.516C217.411 270.771 217.799 270.898 218.273 270.898ZM225.523 263.547L225.57 264.609C226.216 263.797 227.06 263.391 228.102 263.391C229.888 263.391 230.789 264.398 230.805 266.414V272H229.359V266.406C229.354 265.797 229.214 265.346 228.938 265.055C228.667 264.763 228.242 264.617 227.664 264.617C227.195 264.617 226.784 264.742 226.43 264.992C226.076 265.242 225.799 265.57 225.602 265.977V272H224.156V263.547H225.523ZM244.438 270.008L246.062 263.547H247.508L245.047 272H243.875L241.82 265.594L239.82 272H238.648L236.195 263.547H237.633L239.297 269.875L241.266 263.547H242.43L244.438 270.008ZM253.07 264.844C252.852 264.807 252.615 264.789 252.359 264.789C251.411 264.789 250.768 265.193 250.43 266V272H248.984V263.547H250.391L250.414 264.523C250.888 263.768 251.56 263.391 252.43 263.391C252.711 263.391 252.924 263.427 253.07 263.5V264.844ZM255.977 272H254.531V263.547H255.977V272ZM254.414 261.305C254.414 261.07 254.484 260.872 254.625 260.711C254.771 260.549 254.984 260.469 255.266 260.469C255.547 260.469 255.76 260.549 255.906 260.711C256.052 260.872 256.125 261.07 256.125 261.305C256.125 261.539 256.052 261.734 255.906 261.891C255.76 262.047 255.547 262.125 255.266 262.125C254.984 262.125 254.771 262.047 254.625 261.891C254.484 261.734 254.414 261.539 254.414 261.305ZM260.258 261.5V263.547H261.836V264.664H260.258V269.906C260.258 270.245 260.328 270.5 260.469 270.672C260.609 270.839 260.849 270.922 261.188 270.922C261.354 270.922 261.583 270.891 261.875 270.828V272C261.495 272.104 261.125 272.156 260.766 272.156C260.12 272.156 259.633 271.961 259.305 271.57C258.977 271.18 258.812 270.625 258.812 269.906V264.664H257.273V263.547H258.812V261.5H260.258ZM267.039 272.156C265.893 272.156 264.961 271.781 264.242 271.031C263.523 270.276 263.164 269.268 263.164 268.008V267.742C263.164 266.904 263.323 266.156 263.641 265.5C263.964 264.839 264.411 264.323 264.984 263.953C265.562 263.578 266.188 263.391 266.859 263.391C267.958 263.391 268.812 263.753 269.422 264.477C270.031 265.201 270.336 266.237 270.336 267.586V268.188H264.609C264.63 269.021 264.872 269.695 265.336 270.211C265.805 270.721 266.398 270.977 267.117 270.977C267.628 270.977 268.06 270.872 268.414 270.664C268.768 270.456 269.078 270.18 269.344 269.836L270.227 270.523C269.518 271.612 268.456 272.156 267.039 272.156ZM266.859 264.578C266.276 264.578 265.786 264.792 265.391 265.219C264.995 265.641 264.75 266.234 264.656 267H268.891V266.891C268.849 266.156 268.651 265.589 268.297 265.188C267.943 264.781 267.464 264.578 266.859 264.578ZM277.945 261.5V263.547H279.523V264.664H277.945V269.906C277.945 270.245 278.016 270.5 278.156 270.672C278.297 270.839 278.536 270.922 278.875 270.922C279.042 270.922 279.271 270.891 279.562 270.828V272C279.182 272.104 278.812 272.156 278.453 272.156C277.807 272.156 277.32 271.961 276.992 271.57C276.664 271.18 276.5 270.625 276.5 269.906V264.664H274.961V263.547H276.5V261.5H277.945ZM282.664 264.57C283.305 263.784 284.138 263.391 285.164 263.391C286.951 263.391 287.852 264.398 287.867 266.414V272H286.422V266.406C286.417 265.797 286.276 265.346 286 265.055C285.729 264.763 285.305 264.617 284.727 264.617C284.258 264.617 283.846 264.742 283.492 264.992C283.138 265.242 282.862 265.57 282.664 265.977V272H281.219V260H282.664V264.57ZM293.539 272.156C292.393 272.156 291.461 271.781 290.742 271.031C290.023 270.276 289.664 269.268 289.664 268.008V267.742C289.664 266.904 289.823 266.156 290.141 265.5C290.464 264.839 290.911 264.323 291.484 263.953C292.062 263.578 292.688 263.391 293.359 263.391C294.458 263.391 295.312 263.753 295.922 264.477C296.531 265.201 296.836 266.237 296.836 267.586V268.188H291.109C291.13 269.021 291.372 269.695 291.836 270.211C292.305 270.721 292.898 270.977 293.617 270.977C294.128 270.977 294.56 270.872 294.914 270.664C295.268 270.456 295.578 270.18 295.844 269.836L296.727 270.523C296.018 271.612 294.956 272.156 293.539 272.156ZM293.359 264.578C292.776 264.578 292.286 264.792 291.891 265.219C291.495 265.641 291.25 266.234 291.156 267H295.391V266.891C295.349 266.156 295.151 265.589 294.797 265.188C294.443 264.781 293.964 264.578 293.359 264.578ZM303.852 263.547L303.898 264.609C304.544 263.797 305.388 263.391 306.43 263.391C308.216 263.391 309.117 264.398 309.133 266.414V272H307.688V266.406C307.682 265.797 307.542 265.346 307.266 265.055C306.995 264.763 306.57 264.617 305.992 264.617C305.523 264.617 305.112 264.742 304.758 264.992C304.404 265.242 304.128 265.57 303.93 265.977V272H302.484V263.547H303.852ZM316.531 272C316.448 271.833 316.38 271.536 316.328 271.109C315.656 271.807 314.854 272.156 313.922 272.156C313.089 272.156 312.404 271.922 311.867 271.453C311.336 270.979 311.07 270.38 311.07 269.656C311.07 268.776 311.404 268.094 312.07 267.609C312.742 267.12 313.685 266.875 314.898 266.875H316.305V266.211C316.305 265.706 316.154 265.305 315.852 265.008C315.549 264.706 315.104 264.555 314.516 264.555C314 264.555 313.568 264.685 313.219 264.945C312.87 265.206 312.695 265.521 312.695 265.891H311.242C311.242 265.469 311.391 265.062 311.688 264.672C311.99 264.276 312.396 263.964 312.906 263.734C313.422 263.505 313.987 263.391 314.602 263.391C315.576 263.391 316.339 263.635 316.891 264.125C317.443 264.609 317.729 265.279 317.75 266.133V270.023C317.75 270.799 317.849 271.417 318.047 271.875V272H316.531ZM314.133 270.898C314.586 270.898 315.016 270.781 315.422 270.547C315.828 270.312 316.122 270.008 316.305 269.633V267.898H315.172C313.401 267.898 312.516 268.417 312.516 269.453C312.516 269.906 312.667 270.26 312.969 270.516C313.271 270.771 313.659 270.898 314.133 270.898ZM321.375 263.547L321.414 264.484C322.034 263.755 322.87 263.391 323.922 263.391C325.104 263.391 325.909 263.844 326.336 264.75C326.617 264.344 326.982 264.016 327.43 263.766C327.883 263.516 328.417 263.391 329.031 263.391C330.885 263.391 331.828 264.372 331.859 266.336V272H330.414V266.422C330.414 265.818 330.276 265.367 330 265.07C329.724 264.768 329.26 264.617 328.609 264.617C328.073 264.617 327.628 264.779 327.273 265.102C326.919 265.419 326.714 265.849 326.656 266.391V272H325.203V266.461C325.203 265.232 324.602 264.617 323.398 264.617C322.451 264.617 321.802 265.021 321.453 265.828V272H320.008V263.547H321.375ZM337.555 272.156C336.409 272.156 335.477 271.781 334.758 271.031C334.039 270.276 333.68 269.268 333.68 268.008V267.742C333.68 266.904 333.839 266.156 334.156 265.5C334.479 264.839 334.927 264.323 335.5 263.953C336.078 263.578 336.703 263.391 337.375 263.391C338.474 263.391 339.328 263.753 339.938 264.477C340.547 265.201 340.852 266.237 340.852 267.586V268.188H335.125C335.146 269.021 335.388 269.695 335.852 270.211C336.32 270.721 336.914 270.977 337.633 270.977C338.143 270.977 338.576 270.872 338.93 270.664C339.284 270.456 339.594 270.18 339.859 269.836L340.742 270.523C340.034 271.612 338.971 272.156 337.555 272.156ZM337.375 264.578C336.792 264.578 336.302 264.792 335.906 265.219C335.51 265.641 335.266 266.234 335.172 267H339.406V266.891C339.365 266.156 339.167 265.589 338.812 265.188C338.458 264.781 337.979 264.578 337.375 264.578ZM346.117 267.695C346.117 266.867 346.279 266.122 346.602 265.461C346.93 264.799 347.383 264.289 347.961 263.93C348.544 263.57 349.208 263.391 349.953 263.391C351.104 263.391 352.034 263.789 352.742 264.586C353.456 265.383 353.812 266.443 353.812 267.766V267.867C353.812 268.69 353.654 269.43 353.336 270.086C353.023 270.737 352.573 271.245 351.984 271.609C351.401 271.974 350.729 272.156 349.969 272.156C348.823 272.156 347.893 271.758 347.18 270.961C346.471 270.164 346.117 269.109 346.117 267.797V267.695ZM347.57 267.867C347.57 268.805 347.786 269.557 348.219 270.125C348.656 270.693 349.24 270.977 349.969 270.977C350.703 270.977 351.286 270.69 351.719 270.117C352.151 269.539 352.367 268.732 352.367 267.695C352.367 266.768 352.146 266.018 351.703 265.445C351.266 264.867 350.682 264.578 349.953 264.578C349.24 264.578 348.664 264.862 348.227 265.43C347.789 265.997 347.57 266.81 347.57 267.867ZM356.336 272V264.664H355V263.547H356.336V262.68C356.336 261.773 356.578 261.073 357.062 260.578C357.547 260.083 358.232 259.836 359.117 259.836C359.451 259.836 359.781 259.88 360.109 259.969L360.031 261.141C359.786 261.094 359.526 261.07 359.25 261.07C358.781 261.07 358.419 261.208 358.164 261.484C357.909 261.755 357.781 262.146 357.781 262.656V263.547H359.586V264.664H357.781V272H356.336ZM367.117 261.5V263.547H368.695V264.664H367.117V269.906C367.117 270.245 367.188 270.5 367.328 270.672C367.469 270.839 367.708 270.922 368.047 270.922C368.214 270.922 368.443 270.891 368.734 270.828V272C368.354 272.104 367.984 272.156 367.625 272.156C366.979 272.156 366.492 271.961 366.164 271.57C365.836 271.18 365.672 270.625 365.672 269.906V264.664H364.133V263.547H365.672V261.5H367.117ZM371.836 264.57C372.477 263.784 373.31 263.391 374.336 263.391C376.122 263.391 377.023 264.398 377.039 266.414V272H375.594V266.406C375.589 265.797 375.448 265.346 375.172 265.055C374.901 264.763 374.477 264.617 373.898 264.617C373.43 264.617 373.018 264.742 372.664 264.992C372.31 265.242 372.034 265.57 371.836 265.977V272H370.391V260H371.836V264.57ZM382.711 272.156C381.565 272.156 380.633 271.781 379.914 271.031C379.195 270.276 378.836 269.268 378.836 268.008V267.742C378.836 266.904 378.995 266.156 379.312 265.5C379.635 264.839 380.083 264.323 380.656 263.953C381.234 263.578 381.859 263.391 382.531 263.391C383.63 263.391 384.484 263.753 385.094 264.477C385.703 265.201 386.008 266.237 386.008 267.586V268.188H380.281C380.302 269.021 380.544 269.695 381.008 270.211C381.477 270.721 382.07 270.977 382.789 270.977C383.299 270.977 383.732 270.872 384.086 270.664C384.44 270.456 384.75 270.18 385.016 269.836L385.898 270.523C385.19 271.612 384.128 272.156 382.711 272.156ZM382.531 264.578C381.948 264.578 381.458 264.792 381.062 265.219C380.667 265.641 380.422 266.234 380.328 267H384.562V266.891C384.521 266.156 384.323 265.589 383.969 265.188C383.615 264.781 383.135 264.578 382.531 264.578ZM393.617 261.5V263.547H395.195V264.664H393.617V269.906C393.617 270.245 393.688 270.5 393.828 270.672C393.969 270.839 394.208 270.922 394.547 270.922C394.714 270.922 394.943 270.891 395.234 270.828V272C394.854 272.104 394.484 272.156 394.125 272.156C393.479 272.156 392.992 271.961 392.664 271.57C392.336 271.18 392.172 270.625 392.172 269.906V264.664H390.633V263.547H392.172V261.5H393.617ZM402.109 272C402.026 271.833 401.958 271.536 401.906 271.109C401.234 271.807 400.432 272.156 399.5 272.156C398.667 272.156 397.982 271.922 397.445 271.453C396.914 270.979 396.648 270.38 396.648 269.656C396.648 268.776 396.982 268.094 397.648 267.609C398.32 267.12 399.263 266.875 400.477 266.875H401.883V266.211C401.883 265.706 401.732 265.305 401.43 265.008C401.128 264.706 400.682 264.555 400.094 264.555C399.578 264.555 399.146 264.685 398.797 264.945C398.448 265.206 398.273 265.521 398.273 265.891H396.82C396.82 265.469 396.969 265.062 397.266 264.672C397.568 264.276 397.974 263.964 398.484 263.734C399 263.505 399.565 263.391 400.18 263.391C401.154 263.391 401.917 263.635 402.469 264.125C403.021 264.609 403.307 265.279 403.328 266.133V270.023C403.328 270.799 403.427 271.417 403.625 271.875V272H402.109ZM399.711 270.898C400.164 270.898 400.594 270.781 401 270.547C401.406 270.312 401.701 270.008 401.883 269.633V267.898H400.75C398.979 267.898 398.094 268.417 398.094 269.453C398.094 269.906 398.245 270.26 398.547 270.516C398.849 270.771 399.237 270.898 399.711 270.898ZM410.516 269.758C410.516 269.367 410.367 269.065 410.07 268.852C409.779 268.633 409.266 268.445 408.531 268.289C407.802 268.133 407.221 267.945 406.789 267.727C406.362 267.508 406.044 267.247 405.836 266.945C405.633 266.643 405.531 266.284 405.531 265.867C405.531 265.174 405.823 264.589 406.406 264.109C406.995 263.63 407.745 263.391 408.656 263.391C409.615 263.391 410.391 263.638 410.984 264.133C411.583 264.628 411.883 265.26 411.883 266.031H410.43C410.43 265.635 410.26 265.294 409.922 265.008C409.589 264.721 409.167 264.578 408.656 264.578C408.13 264.578 407.719 264.693 407.422 264.922C407.125 265.151 406.977 265.451 406.977 265.82C406.977 266.169 407.115 266.432 407.391 266.609C407.667 266.786 408.164 266.956 408.883 267.117C409.607 267.279 410.193 267.471 410.641 267.695C411.089 267.919 411.419 268.19 411.633 268.508C411.852 268.82 411.961 269.203 411.961 269.656C411.961 270.411 411.659 271.018 411.055 271.477C410.451 271.93 409.667 272.156 408.703 272.156C408.026 272.156 407.427 272.036 406.906 271.797C406.385 271.557 405.977 271.224 405.68 270.797C405.388 270.365 405.242 269.898 405.242 269.398H406.688C406.714 269.883 406.906 270.268 407.266 270.555C407.63 270.836 408.109 270.977 408.703 270.977C409.25 270.977 409.688 270.867 410.016 270.648C410.349 270.424 410.516 270.128 410.516 269.758ZM416.203 268.086L415.297 269.031V272H413.852V260H415.297V267.258L416.07 266.328L418.703 263.547H420.461L417.172 267.078L420.844 272H419.148L416.203 268.086ZM142.859 293.883L144.828 287.547H146.375L142.977 297.305C142.451 298.711 141.615 299.414 140.469 299.414L140.195 299.391L139.656 299.289V298.117L140.047 298.148C140.536 298.148 140.917 298.049 141.188 297.852C141.464 297.654 141.69 297.292 141.867 296.766L142.188 295.906L139.172 287.547H140.75L142.859 293.883ZM147.164 291.695C147.164 290.867 147.326 290.122 147.648 289.461C147.977 288.799 148.43 288.289 149.008 287.93C149.591 287.57 150.255 287.391 151 287.391C152.151 287.391 153.081 287.789 153.789 288.586C154.503 289.383 154.859 290.443 154.859 291.766V291.867C154.859 292.69 154.701 293.43 154.383 294.086C154.07 294.737 153.62 295.245 153.031 295.609C152.448 295.974 151.776 296.156 151.016 296.156C149.87 296.156 148.94 295.758 148.227 294.961C147.518 294.164 147.164 293.109 147.164 291.797V291.695ZM148.617 291.867C148.617 292.805 148.833 293.557 149.266 294.125C149.703 294.693 150.286 294.977 151.016 294.977C151.75 294.977 152.333 294.69 152.766 294.117C153.198 293.539 153.414 292.732 153.414 291.695C153.414 290.768 153.193 290.018 152.75 289.445C152.312 288.867 151.729 288.578 151 288.578C150.286 288.578 149.711 288.862 149.273 289.43C148.836 289.997 148.617 290.81 148.617 291.867ZM161.891 295.164C161.328 295.826 160.503 296.156 159.414 296.156C158.513 296.156 157.826 295.896 157.352 295.375C156.883 294.849 156.646 294.073 156.641 293.047V287.547H158.086V293.008C158.086 294.289 158.607 294.93 159.648 294.93C160.753 294.93 161.487 294.518 161.852 293.695V287.547H163.297V296H161.922L161.891 295.164ZM176.953 294.008L178.578 287.547H180.023L177.562 296H176.391L174.336 289.594L172.336 296H171.164L168.711 287.547H170.148L171.812 293.875L173.781 287.547H174.945L176.953 294.008ZM186.719 296C186.635 295.833 186.568 295.536 186.516 295.109C185.844 295.807 185.042 296.156 184.109 296.156C183.276 296.156 182.591 295.922 182.055 295.453C181.523 294.979 181.258 294.38 181.258 293.656C181.258 292.776 181.591 292.094 182.258 291.609C182.93 291.12 183.872 290.875 185.086 290.875H186.492V290.211C186.492 289.706 186.341 289.305 186.039 289.008C185.737 288.706 185.292 288.555 184.703 288.555C184.188 288.555 183.755 288.685 183.406 288.945C183.057 289.206 182.883 289.521 182.883 289.891H181.43C181.43 289.469 181.578 289.062 181.875 288.672C182.177 288.276 182.583 287.964 183.094 287.734C183.609 287.505 184.174 287.391 184.789 287.391C185.763 287.391 186.526 287.635 187.078 288.125C187.63 288.609 187.917 289.279 187.938 290.133V294.023C187.938 294.799 188.036 295.417 188.234 295.875V296H186.719ZM184.32 294.898C184.773 294.898 185.203 294.781 185.609 294.547C186.016 294.312 186.31 294.008 186.492 293.633V291.898H185.359C183.589 291.898 182.703 292.417 182.703 293.453C182.703 293.906 182.854 294.26 183.156 294.516C183.458 294.771 183.846 294.898 184.32 294.898ZM191.57 287.547L191.617 288.609C192.263 287.797 193.107 287.391 194.148 287.391C195.935 287.391 196.836 288.398 196.852 290.414V296H195.406V290.406C195.401 289.797 195.26 289.346 194.984 289.055C194.714 288.763 194.289 288.617 193.711 288.617C193.242 288.617 192.831 288.742 192.477 288.992C192.122 289.242 191.846 289.57 191.648 289.977V296H190.203V287.547H191.57ZM200.992 285.5V287.547H202.57V288.664H200.992V293.906C200.992 294.245 201.062 294.5 201.203 294.672C201.344 294.839 201.583 294.922 201.922 294.922C202.089 294.922 202.318 294.891 202.609 294.828V296C202.229 296.104 201.859 296.156 201.5 296.156C200.854 296.156 200.367 295.961 200.039 295.57C199.711 295.18 199.547 294.625 199.547 293.906V288.664H198.008V287.547H199.547V285.5H200.992ZM210.195 285.5V287.547H211.773V288.664H210.195V293.906C210.195 294.245 210.266 294.5 210.406 294.672C210.547 294.839 210.786 294.922 211.125 294.922C211.292 294.922 211.521 294.891 211.812 294.828V296C211.432 296.104 211.062 296.156 210.703 296.156C210.057 296.156 209.57 295.961 209.242 295.57C208.914 295.18 208.75 294.625 208.75 293.906V288.664H207.211V287.547H208.75V285.5H210.195ZM212.93 291.695C212.93 290.867 213.091 290.122 213.414 289.461C213.742 288.799 214.195 288.289 214.773 287.93C215.357 287.57 216.021 287.391 216.766 287.391C217.917 287.391 218.846 287.789 219.555 288.586C220.268 289.383 220.625 290.443 220.625 291.766V291.867C220.625 292.69 220.466 293.43 220.148 294.086C219.836 294.737 219.385 295.245 218.797 295.609C218.214 295.974 217.542 296.156 216.781 296.156C215.635 296.156 214.706 295.758 213.992 294.961C213.284 294.164 212.93 293.109 212.93 291.797V291.695ZM214.383 291.867C214.383 292.805 214.599 293.557 215.031 294.125C215.469 294.693 216.052 294.977 216.781 294.977C217.516 294.977 218.099 294.69 218.531 294.117C218.964 293.539 219.18 292.732 219.18 291.695C219.18 290.768 218.958 290.018 218.516 289.445C218.078 288.867 217.495 288.578 216.766 288.578C216.052 288.578 215.477 288.862 215.039 289.43C214.602 289.997 214.383 290.81 214.383 291.867ZM226.055 291.703C226.055 290.406 226.362 289.365 226.977 288.578C227.591 287.786 228.396 287.391 229.391 287.391C230.38 287.391 231.164 287.729 231.742 288.406V284H233.188V296H231.859L231.789 295.094C231.211 295.802 230.406 296.156 229.375 296.156C228.396 296.156 227.596 295.755 226.977 294.953C226.362 294.151 226.055 293.104 226.055 291.812V291.703ZM227.5 291.867C227.5 292.826 227.698 293.576 228.094 294.117C228.49 294.659 229.036 294.93 229.734 294.93C230.651 294.93 231.32 294.518 231.742 293.695V289.812C231.31 289.016 230.646 288.617 229.75 288.617C229.042 288.617 228.49 288.891 228.094 289.438C227.698 289.984 227.5 290.794 227.5 291.867ZM235.055 291.695C235.055 290.867 235.216 290.122 235.539 289.461C235.867 288.799 236.32 288.289 236.898 287.93C237.482 287.57 238.146 287.391 238.891 287.391C240.042 287.391 240.971 287.789 241.68 288.586C242.393 289.383 242.75 290.443 242.75 291.766V291.867C242.75 292.69 242.591 293.43 242.273 294.086C241.961 294.737 241.51 295.245 240.922 295.609C240.339 295.974 239.667 296.156 238.906 296.156C237.76 296.156 236.831 295.758 236.117 294.961C235.409 294.164 235.055 293.109 235.055 291.797V291.695ZM236.508 291.867C236.508 292.805 236.724 293.557 237.156 294.125C237.594 294.693 238.177 294.977 238.906 294.977C239.641 294.977 240.224 294.69 240.656 294.117C241.089 293.539 241.305 292.732 241.305 291.695C241.305 290.768 241.083 290.018 240.641 289.445C240.203 288.867 239.62 288.578 238.891 288.578C238.177 288.578 237.602 288.862 237.164 289.43C236.727 289.997 236.508 290.81 236.508 291.867ZM244.594 295.242C244.594 294.992 244.667 294.784 244.812 294.617C244.964 294.451 245.188 294.367 245.484 294.367C245.781 294.367 246.005 294.451 246.156 294.617C246.312 294.784 246.391 294.992 246.391 295.242C246.391 295.482 246.312 295.682 246.156 295.844C246.005 296.005 245.781 296.086 245.484 296.086C245.188 296.086 244.964 296.005 244.812 295.844C244.667 295.682 244.594 295.482 244.594 295.242ZM248.812 295.242C248.812 294.992 248.885 294.784 249.031 294.617C249.182 294.451 249.406 294.367 249.703 294.367C250 294.367 250.224 294.451 250.375 294.617C250.531 294.784 250.609 294.992 250.609 295.242C250.609 295.482 250.531 295.682 250.375 295.844C250.224 296.005 250 296.086 249.703 296.086C249.406 296.086 249.182 296.005 249.031 295.844C248.885 295.682 248.812 295.482 248.812 295.242ZM253.031 295.242C253.031 294.992 253.104 294.784 253.25 294.617C253.401 294.451 253.625 294.367 253.922 294.367C254.219 294.367 254.443 294.451 254.594 294.617C254.75 294.784 254.828 294.992 254.828 295.242C254.828 295.482 254.75 295.682 254.594 295.844C254.443 296.005 254.219 296.086 253.922 296.086C253.625 296.086 253.401 296.005 253.25 295.844C253.104 295.682 253.031 295.482 253.031 295.242Z" fill="black" fill-opacity="0.87"/>
<path d="M145.885 245.395H143.143V253H142.023V245.395H139.287V244.469H145.885V245.395ZM150.227 253C150.164 252.875 150.113 252.652 150.074 252.332C149.57 252.855 148.969 253.117 148.27 253.117C147.645 253.117 147.131 252.941 146.729 252.59C146.33 252.234 146.131 251.785 146.131 251.242C146.131 250.582 146.381 250.07 146.881 249.707C147.385 249.34 148.092 249.156 149.002 249.156H150.057V248.658C150.057 248.279 149.943 247.979 149.717 247.756C149.49 247.529 149.156 247.416 148.715 247.416C148.328 247.416 148.004 247.514 147.742 247.709C147.48 247.904 147.35 248.141 147.35 248.418H146.26C146.26 248.102 146.371 247.797 146.594 247.504C146.82 247.207 147.125 246.973 147.508 246.801C147.895 246.629 148.318 246.543 148.779 246.543C149.51 246.543 150.082 246.727 150.496 247.094C150.91 247.457 151.125 247.959 151.141 248.6V251.518C151.141 252.1 151.215 252.562 151.363 252.906V253H150.227ZM148.428 252.174C148.768 252.174 149.09 252.086 149.395 251.91C149.699 251.734 149.92 251.506 150.057 251.225V249.924H149.207C147.879 249.924 147.215 250.312 147.215 251.09C147.215 251.43 147.328 251.695 147.555 251.887C147.781 252.078 148.072 252.174 148.428 252.174ZM156.531 251.318C156.531 251.025 156.42 250.799 156.197 250.639C155.979 250.475 155.594 250.334 155.043 250.217C154.496 250.1 154.061 249.959 153.736 249.795C153.416 249.631 153.178 249.436 153.021 249.209C152.869 248.982 152.793 248.713 152.793 248.4C152.793 247.881 153.012 247.441 153.449 247.082C153.891 246.723 154.453 246.543 155.137 246.543C155.855 246.543 156.438 246.729 156.883 247.1C157.332 247.471 157.557 247.945 157.557 248.523H156.467C156.467 248.227 156.34 247.971 156.086 247.756C155.836 247.541 155.52 247.434 155.137 247.434C154.742 247.434 154.434 247.52 154.211 247.691C153.988 247.863 153.877 248.088 153.877 248.365C153.877 248.627 153.98 248.824 154.188 248.957C154.395 249.09 154.768 249.217 155.307 249.338C155.85 249.459 156.289 249.604 156.625 249.771C156.961 249.939 157.209 250.143 157.369 250.381C157.533 250.615 157.615 250.902 157.615 251.242C157.615 251.809 157.389 252.264 156.936 252.607C156.482 252.947 155.895 253.117 155.172 253.117C154.664 253.117 154.215 253.027 153.824 252.848C153.434 252.668 153.127 252.418 152.904 252.098C152.686 251.773 152.576 251.424 152.576 251.049H153.66C153.68 251.412 153.824 251.701 154.094 251.916C154.367 252.127 154.727 252.232 155.172 252.232C155.582 252.232 155.91 252.15 156.156 251.986C156.406 251.818 156.531 251.596 156.531 251.318ZM160.797 250.064L160.117 250.773V253H159.033V244H160.117V249.443L160.697 248.746L162.672 246.66H163.99L161.523 249.309L164.277 253H163.006L160.797 250.064ZM169.111 246.66L169.146 247.457C169.631 246.848 170.264 246.543 171.045 246.543C172.385 246.543 173.061 247.299 173.072 248.811V253H171.988V248.805C171.984 248.348 171.879 248.01 171.672 247.791C171.469 247.572 171.15 247.463 170.717 247.463C170.365 247.463 170.057 247.557 169.791 247.744C169.525 247.932 169.318 248.178 169.17 248.482V253H168.086V246.66H169.111ZM178.621 253C178.559 252.875 178.508 252.652 178.469 252.332C177.965 252.855 177.363 253.117 176.664 253.117C176.039 253.117 175.525 252.941 175.123 252.59C174.725 252.234 174.525 251.785 174.525 251.242C174.525 250.582 174.775 250.07 175.275 249.707C175.779 249.34 176.486 249.156 177.396 249.156H178.451V248.658C178.451 248.279 178.338 247.979 178.111 247.756C177.885 247.529 177.551 247.416 177.109 247.416C176.723 247.416 176.398 247.514 176.137 247.709C175.875 247.904 175.744 248.141 175.744 248.418H174.654C174.654 248.102 174.766 247.797 174.988 247.504C175.215 247.207 175.52 246.973 175.902 246.801C176.289 246.629 176.713 246.543 177.174 246.543C177.904 246.543 178.477 246.727 178.891 247.094C179.305 247.457 179.52 247.959 179.535 248.6V251.518C179.535 252.1 179.609 252.562 179.758 252.906V253H178.621ZM176.822 252.174C177.162 252.174 177.484 252.086 177.789 251.91C178.094 251.734 178.314 251.506 178.451 251.225V249.924H177.602C176.273 249.924 175.609 250.312 175.609 251.09C175.609 251.43 175.723 251.695 175.949 251.887C176.176 252.078 176.467 252.174 176.822 252.174ZM182.254 246.66L182.283 247.363C182.748 246.816 183.375 246.543 184.164 246.543C185.051 246.543 185.654 246.883 185.975 247.562C186.186 247.258 186.459 247.012 186.795 246.824C187.135 246.637 187.535 246.543 187.996 246.543C189.387 246.543 190.094 247.279 190.117 248.752V253H189.033V248.816C189.033 248.363 188.93 248.025 188.723 247.803C188.516 247.576 188.168 247.463 187.68 247.463C187.277 247.463 186.943 247.584 186.678 247.826C186.412 248.064 186.258 248.387 186.215 248.793V253H185.125V248.846C185.125 247.924 184.674 247.463 183.771 247.463C183.061 247.463 182.574 247.766 182.312 248.371V253H181.229V246.66H182.254ZM194.389 253.117C193.529 253.117 192.83 252.836 192.291 252.273C191.752 251.707 191.482 250.951 191.482 250.006V249.807C191.482 249.178 191.602 248.617 191.84 248.125C192.082 247.629 192.418 247.242 192.848 246.965C193.281 246.684 193.75 246.543 194.254 246.543C195.078 246.543 195.719 246.814 196.176 247.357C196.633 247.9 196.861 248.678 196.861 249.689V250.141H192.566C192.582 250.766 192.764 251.271 193.111 251.658C193.463 252.041 193.908 252.232 194.447 252.232C194.83 252.232 195.154 252.154 195.42 251.998C195.686 251.842 195.918 251.635 196.117 251.377L196.779 251.893C196.248 252.709 195.451 253.117 194.389 253.117ZM194.254 247.434C193.816 247.434 193.449 247.594 193.152 247.914C192.855 248.23 192.672 248.676 192.602 249.25H195.777V249.168C195.746 248.617 195.598 248.191 195.332 247.891C195.066 247.586 194.707 247.434 194.254 247.434Z" fill="black" fill-opacity="0.54"/>
<g clip-path="url(#clip0)">
<path d="M140 125C140 121.686 142.686 119 146 119H216C219.314 119 222 121.686 222 125V128C222 131.314 219.314 134 216 134H146C142.686 134 140 131.314 140 128V125Z" fill="black" fill-opacity="0.08"/>
<path d="M157.718 126.995V129.5H156.874V123.102H159.234C159.934 123.102 160.482 123.28 160.877 123.638C161.276 123.995 161.475 124.468 161.475 125.057C161.475 125.678 161.28 126.157 160.891 126.494C160.504 126.828 159.949 126.995 159.225 126.995H157.718ZM157.718 126.305H159.234C159.685 126.305 160.031 126.2 160.271 125.989C160.511 125.775 160.631 125.467 160.631 125.066C160.631 124.685 160.511 124.38 160.271 124.152C160.031 123.923 159.701 123.805 159.282 123.796H157.718V126.305ZM167.474 126.507C167.474 127.134 167.368 127.682 167.157 128.151C166.946 128.617 166.647 128.973 166.261 129.219C165.874 129.465 165.423 129.588 164.907 129.588C164.403 129.588 163.957 129.465 163.567 129.219C163.177 128.97 162.874 128.617 162.657 128.16C162.443 127.7 162.333 127.168 162.328 126.564V126.103C162.328 125.488 162.435 124.944 162.648 124.473C162.862 124.001 163.164 123.641 163.554 123.392C163.946 123.14 164.395 123.014 164.898 123.014C165.411 123.014 165.862 123.138 166.252 123.387C166.645 123.633 166.946 123.992 167.157 124.464C167.368 124.933 167.474 125.479 167.474 126.103V126.507ZM166.634 126.094C166.634 125.335 166.482 124.754 166.177 124.35C165.873 123.942 165.446 123.739 164.898 123.739C164.365 123.739 163.945 123.942 163.637 124.35C163.333 124.754 163.176 125.316 163.167 126.037V126.507C163.167 127.243 163.321 127.821 163.628 128.243C163.939 128.662 164.365 128.872 164.907 128.872C165.452 128.872 165.874 128.674 166.173 128.278C166.472 127.88 166.625 127.31 166.634 126.569V126.094ZM169.829 123.102L171.921 128.322L174.013 123.102H175.107V129.5H174.263V127.008L174.342 124.319L172.242 129.5H171.596L169.5 124.332L169.583 127.008V129.5H168.739V123.102H169.829ZM181.519 126.507C181.519 127.134 181.413 127.682 181.202 128.151C180.991 128.617 180.692 128.973 180.306 129.219C179.919 129.465 179.468 129.588 178.952 129.588C178.448 129.588 178.001 129.465 177.612 129.219C177.222 128.97 176.919 128.617 176.702 128.16C176.488 127.7 176.378 127.168 176.373 126.564V126.103C176.373 125.488 176.479 124.944 176.693 124.473C176.907 124.001 177.209 123.641 177.599 123.392C177.991 123.14 178.439 123.014 178.943 123.014C179.456 123.014 179.907 123.138 180.297 123.387C180.689 123.633 180.991 123.992 181.202 124.464C181.413 124.933 181.519 125.479 181.519 126.103V126.507ZM180.679 126.094C180.679 125.335 180.527 124.754 180.222 124.35C179.917 123.942 179.491 123.739 178.943 123.739C178.41 123.739 177.99 123.942 177.682 124.35C177.377 124.754 177.221 125.316 177.212 126.037V126.507C177.212 127.243 177.366 127.821 177.673 128.243C177.984 128.662 178.41 128.872 178.952 128.872C179.497 128.872 179.919 128.674 180.218 128.278C180.517 127.88 180.67 127.31 180.679 126.569V126.094ZM182.784 129.5V123.102H184.59C185.147 123.102 185.639 123.225 186.067 123.471C186.495 123.717 186.824 124.067 187.056 124.521C187.29 124.975 187.409 125.497 187.412 126.085V126.494C187.412 127.098 187.294 127.626 187.06 128.081C186.829 128.535 186.496 128.883 186.062 129.126C185.632 129.37 185.129 129.494 184.555 129.5H182.784ZM183.628 123.796V128.81H184.516C185.166 128.81 185.671 128.608 186.032 128.204C186.395 127.799 186.577 127.224 186.577 126.477V126.103C186.577 125.376 186.405 124.812 186.062 124.411C185.723 124.007 185.239 123.802 184.612 123.796H183.628ZM193.612 126.507C193.612 127.134 193.507 127.682 193.296 128.151C193.085 128.617 192.786 128.973 192.399 129.219C192.013 129.465 191.562 129.588 191.046 129.588C190.542 129.588 190.095 129.465 189.706 129.219C189.316 128.97 189.013 128.617 188.796 128.16C188.582 127.7 188.472 127.168 188.466 126.564V126.103C188.466 125.488 188.573 124.944 188.787 124.473C189.001 124.001 189.303 123.641 189.692 123.392C190.085 123.14 190.533 123.014 191.037 123.014C191.55 123.014 192.001 123.138 192.391 123.387C192.783 123.633 193.085 123.992 193.296 124.464C193.507 124.933 193.612 125.479 193.612 126.103V126.507ZM192.773 126.094C192.773 125.335 192.621 124.754 192.316 124.35C192.011 123.942 191.585 123.739 191.037 123.739C190.504 123.739 190.083 123.942 189.776 124.35C189.471 124.754 189.314 125.316 189.306 126.037V126.507C189.306 127.243 189.459 127.821 189.767 128.243C190.078 128.662 190.504 128.872 191.046 128.872C191.591 128.872 192.013 128.674 192.312 128.278C192.61 127.88 192.764 127.31 192.773 126.569V126.094ZM197.225 126.912H195.722V129.5H194.874V123.102H196.992C197.712 123.102 198.266 123.266 198.653 123.594C199.042 123.922 199.237 124.399 199.237 125.026C199.237 125.425 199.129 125.772 198.912 126.068C198.698 126.364 198.399 126.585 198.016 126.731L199.519 129.447V129.5H198.613L197.225 126.912ZM195.722 126.222H197.018C197.437 126.222 197.77 126.113 198.016 125.896C198.265 125.68 198.389 125.39 198.389 125.026C198.389 124.631 198.271 124.328 198.033 124.117C197.799 123.906 197.459 123.799 197.014 123.796H195.722V126.222ZM205.346 126.507C205.346 127.134 205.24 127.682 205.029 128.151C204.818 128.617 204.52 128.973 204.133 129.219C203.746 129.465 203.295 129.588 202.779 129.588C202.275 129.588 201.829 129.465 201.439 129.219C201.049 128.97 200.746 128.617 200.529 128.16C200.315 127.7 200.206 127.168 200.2 126.564V126.103C200.2 125.488 200.307 124.944 200.521 124.473C200.734 124.001 201.036 123.641 201.426 123.392C201.818 123.14 202.267 123.014 202.771 123.014C203.283 123.014 203.734 123.138 204.124 123.387C204.517 123.633 204.818 123.992 205.029 124.464C205.24 124.933 205.346 125.479 205.346 126.103V126.507ZM204.506 126.094C204.506 125.335 204.354 124.754 204.049 124.35C203.745 123.942 203.318 123.739 202.771 123.739C202.237 123.739 201.817 123.942 201.509 124.35C201.205 124.754 201.048 125.316 201.039 126.037V126.507C201.039 127.243 201.193 127.821 201.5 128.243C201.811 128.662 202.237 128.872 202.779 128.872C203.324 128.872 203.746 128.674 204.045 128.278C204.344 127.88 204.498 127.31 204.506 126.569V126.094Z" fill="black" fill-opacity="0.87"/>
</g>
<g clip-path="url(#clip1)">
<path d="M230 125C230 121.686 232.686 119 236 119H315C318.314 119 321 121.686 321 125V128C321 131.314 318.314 134 315 134H236C232.686 134 230 131.314 230 128V125Z" fill="black" fill-opacity="0.08"/>
<path d="M248.953 126.648C248.229 126.44 247.702 126.185 247.371 125.883C247.042 125.579 246.878 125.204 246.878 124.758C246.878 124.254 247.079 123.838 247.48 123.51C247.885 123.179 248.409 123.014 249.054 123.014C249.493 123.014 249.884 123.099 250.227 123.269C250.573 123.438 250.839 123.673 251.027 123.972C251.217 124.271 251.312 124.597 251.312 124.952H250.464C250.464 124.565 250.341 124.262 250.095 124.042C249.849 123.819 249.502 123.708 249.054 123.708C248.638 123.708 248.312 123.8 248.078 123.985C247.847 124.167 247.731 124.42 247.731 124.745C247.731 125.006 247.841 125.227 248.061 125.409C248.283 125.587 248.66 125.751 249.19 125.901C249.723 126.05 250.139 126.216 250.438 126.397C250.74 126.576 250.962 126.786 251.106 127.026C251.252 127.266 251.326 127.549 251.326 127.874C251.326 128.393 251.124 128.809 250.719 129.122C250.315 129.433 249.774 129.588 249.098 129.588C248.658 129.588 248.248 129.504 247.867 129.337C247.486 129.167 247.192 128.936 246.984 128.643C246.779 128.35 246.676 128.018 246.676 127.646H247.524C247.524 128.032 247.667 128.338 247.951 128.564C248.238 128.787 248.62 128.898 249.098 128.898C249.543 128.898 249.884 128.807 250.122 128.625C250.359 128.444 250.478 128.196 250.478 127.883C250.478 127.569 250.368 127.328 250.148 127.158C249.928 126.985 249.53 126.815 248.953 126.648ZM257.329 129.5H256.48V126.542H253.255V129.5H252.411V123.102H253.255V125.853H256.48V123.102H257.329V129.5ZM263.749 126.507C263.749 127.134 263.644 127.682 263.433 128.151C263.222 128.617 262.923 128.973 262.536 129.219C262.149 129.465 261.698 129.588 261.183 129.588C260.679 129.588 260.232 129.465 259.842 129.219C259.453 128.97 259.149 128.617 258.933 128.16C258.719 127.7 258.609 127.168 258.603 126.564V126.103C258.603 125.488 258.71 124.944 258.924 124.473C259.138 124.001 259.439 123.641 259.829 123.392C260.222 123.14 260.67 123.014 261.174 123.014C261.687 123.014 262.138 123.138 262.527 123.387C262.92 123.633 263.222 123.992 263.433 124.464C263.644 124.933 263.749 125.479 263.749 126.103V126.507ZM262.91 126.094C262.91 125.335 262.757 124.754 262.453 124.35C262.148 123.942 261.722 123.739 261.174 123.739C260.641 123.739 260.22 123.942 259.913 124.35C259.608 124.754 259.451 125.316 259.442 126.037V126.507C259.442 127.243 259.596 127.821 259.904 128.243C260.214 128.662 260.641 128.872 261.183 128.872C261.728 128.872 262.149 128.674 262.448 128.278C262.747 127.88 262.901 127.31 262.91 126.569V126.094ZM267.361 126.912H265.858V129.5H265.01V123.102H267.128C267.849 123.102 268.403 123.266 268.79 123.594C269.179 123.922 269.374 124.399 269.374 125.026C269.374 125.425 269.266 125.772 269.049 126.068C268.835 126.364 268.536 126.585 268.152 126.731L269.655 129.447V129.5H268.75L267.361 126.912ZM265.858 126.222H267.155C267.574 126.222 267.906 126.113 268.152 125.896C268.401 125.68 268.526 125.39 268.526 125.026C268.526 124.631 268.407 124.328 268.17 124.117C267.936 123.906 267.596 123.799 267.15 123.796H265.858V126.222ZM274.63 123.796H272.573V129.5H271.734V123.796H269.682V123.102H274.63V123.796ZM277.636 129.5V123.102H279.728C280.422 123.102 280.943 123.245 281.292 123.532C281.644 123.819 281.819 124.244 281.819 124.807C281.819 125.105 281.734 125.371 281.564 125.602C281.395 125.831 281.163 126.008 280.87 126.134C281.216 126.23 281.488 126.415 281.688 126.688C281.89 126.957 281.991 127.279 281.991 127.654C281.991 128.229 281.805 128.68 281.433 129.008C281.061 129.336 280.535 129.5 279.855 129.5H277.636ZM278.479 126.507V128.81H279.873C280.265 128.81 280.574 128.709 280.8 128.507C281.028 128.302 281.143 128.021 281.143 127.663C281.143 126.893 280.724 126.507 279.886 126.507H278.479ZM278.479 125.831H279.754C280.123 125.831 280.417 125.738 280.637 125.554C280.86 125.369 280.971 125.119 280.971 124.802C280.971 124.451 280.869 124.196 280.664 124.038C280.458 123.876 280.146 123.796 279.728 123.796H278.479V125.831ZM285.59 126.912H284.087V129.5H283.239V123.102H285.357C286.078 123.102 286.631 123.266 287.018 123.594C287.408 123.922 287.603 124.399 287.603 125.026C287.603 125.425 287.494 125.772 287.277 126.068C287.063 126.364 286.765 126.585 286.381 126.731L287.884 129.447V129.5H286.979L285.59 126.912ZM284.087 126.222H285.383C285.802 126.222 286.135 126.113 286.381 125.896C286.63 125.68 286.754 125.39 286.754 125.026C286.754 124.631 286.636 124.328 286.398 124.117C286.164 123.906 285.824 123.799 285.379 123.796H284.087V126.222ZM292.406 126.542H289.633V128.81H292.854V129.5H288.789V123.102H292.81V123.796H289.633V125.853H292.406V126.542ZM297.438 127.83H294.757L294.155 129.5H293.285L295.728 123.102H296.466L298.914 129.5H298.048L297.438 127.83ZM295.012 127.136H297.187L296.097 124.143L295.012 127.136ZM301.401 126.525L300.619 127.338V129.5H299.775V123.102H300.619V126.266L303.462 123.102H304.482L301.964 125.927L304.68 129.5H303.669L301.401 126.525Z" fill="black" fill-opacity="0.87"/>
</g>
<g clip-path="url(#clip2)">
<path d="M330 125C330 121.686 332.686 119 336 119H410C413.314 119 416 121.686 416 125V128C416 131.314 413.314 134 410 134H336C332.686 134 330 131.314 330 128V125Z" fill="black" fill-opacity="0.08"/>
<path d="M347.938 128.81H350.97V129.5H347.09V123.102H347.938V128.81ZM356.564 126.507C356.564 127.134 356.459 127.682 356.248 128.151C356.037 128.617 355.738 128.973 355.352 129.219C354.965 129.465 354.514 129.588 353.998 129.588C353.494 129.588 353.047 129.465 352.658 129.219C352.268 128.97 351.965 128.617 351.748 128.16C351.534 127.7 351.424 127.168 351.418 126.564V126.103C351.418 125.488 351.525 124.944 351.739 124.473C351.953 124.001 352.255 123.641 352.645 123.392C353.037 123.14 353.485 123.014 353.989 123.014C354.502 123.014 354.953 123.138 355.343 123.387C355.735 123.633 356.037 123.992 356.248 124.464C356.459 124.933 356.564 125.479 356.564 126.103V126.507ZM355.725 126.094C355.725 125.335 355.573 124.754 355.268 124.35C354.963 123.942 354.537 123.739 353.989 123.739C353.456 123.739 353.036 123.942 352.728 124.35C352.423 124.754 352.267 125.316 352.258 126.037V126.507C352.258 127.243 352.412 127.821 352.719 128.243C353.03 128.662 353.456 128.872 353.998 128.872C354.543 128.872 354.965 128.674 355.264 128.278C355.562 127.88 355.716 127.31 355.725 126.569V126.094ZM362.748 129.5H361.899L358.678 124.569V129.5H357.83V123.102H358.678L361.908 128.054V123.102H362.748V129.5ZM368.97 128.661C368.753 128.971 368.45 129.204 368.061 129.359C367.674 129.512 367.223 129.588 366.707 129.588C366.186 129.588 365.723 129.466 365.318 129.223C364.914 128.977 364.601 128.628 364.378 128.177C364.158 127.726 364.045 127.203 364.04 126.608V126.05C364.04 125.086 364.264 124.339 364.712 123.809C365.163 123.279 365.796 123.014 366.61 123.014C367.278 123.014 367.816 123.185 368.223 123.528C368.63 123.868 368.879 124.351 368.97 124.978H368.126C367.968 124.131 367.464 123.708 366.615 123.708C366.049 123.708 365.62 123.907 365.327 124.306C365.037 124.701 364.891 125.275 364.888 126.028V126.551C364.888 127.269 365.052 127.84 365.38 128.265C365.708 128.687 366.152 128.898 366.711 128.898C367.028 128.898 367.305 128.863 367.542 128.792C367.779 128.722 367.976 128.604 368.131 128.437V127H366.65V126.314H368.97V128.661ZM372.613 129.5V123.102H374.705C375.399 123.102 375.921 123.245 376.27 123.532C376.621 123.819 376.797 124.244 376.797 124.807C376.797 125.105 376.712 125.371 376.542 125.602C376.372 125.831 376.141 126.008 375.848 126.134C376.193 126.23 376.466 126.415 376.665 126.688C376.867 126.957 376.968 127.279 376.968 127.654C376.968 128.229 376.782 128.68 376.41 129.008C376.038 129.336 375.512 129.5 374.833 129.5H372.613ZM373.457 126.507V128.81H374.85C375.243 128.81 375.552 128.709 375.777 128.507C376.006 128.302 376.12 128.021 376.12 127.663C376.12 126.893 375.701 126.507 374.863 126.507H373.457ZM373.457 125.831H374.731C375.101 125.831 375.395 125.738 375.615 125.554C375.837 125.369 375.949 125.119 375.949 124.802C375.949 124.451 375.846 124.196 375.641 124.038C375.436 123.876 375.124 123.796 374.705 123.796H373.457V125.831ZM380.567 126.912H379.064V129.5H378.216V123.102H380.334C381.055 123.102 381.609 123.266 381.996 123.594C382.385 123.922 382.58 124.399 382.58 125.026C382.58 125.425 382.472 125.772 382.255 126.068C382.041 126.364 381.742 126.585 381.358 126.731L382.861 129.447V129.5H381.956L380.567 126.912ZM379.064 126.222H380.361C380.78 126.222 381.112 126.113 381.358 125.896C381.607 125.68 381.732 125.39 381.732 125.026C381.732 124.631 381.613 124.328 381.376 124.117C381.142 123.906 380.802 123.799 380.356 123.796H379.064V126.222ZM387.383 126.542H384.61V128.81H387.832V129.5H383.767V123.102H387.788V123.796H384.61V125.853H387.383V126.542ZM392.415 127.83H389.734L389.132 129.5H388.262L390.706 123.102H391.444L393.892 129.5H393.026L392.415 127.83ZM389.989 127.136H392.165L391.075 124.143L389.989 127.136ZM396.379 126.525L395.597 127.338V129.5H394.753V123.102H395.597V126.266L398.44 123.102H399.459L396.941 125.927L399.657 129.5H398.646L396.379 126.525Z" fill="black" fill-opacity="0.87"/>
</g>
<defs>
<filter id="filter0_d" x="123" y="110" width="334" height="108" filterUnits="userSpaceOnUse" color-interpolation-filters="sRGB">
<feFlood flood-opacity="0" result="BackgroundImageFix"/>
<feColorMatrix in="SourceAlpha" type="matrix" values="0 0 0 0 0 0 0 0 0 0 0 0 0 0 0 0 0 0 127 0"/>
<feOffset dy="2"/>
<feGaussianBlur stdDeviation="2"/>
<feColorMatrix type="matrix" values="0 0 0 0 0 0 0 0 0 0 0 0 0 0 0 0 0 0 0.25 0"/>
<feBlend mode="normal" in2="BackgroundImageFix" result="effect1_dropShadow"/>
<feBlend mode="normal" in="SourceGraphic" in2="effect1_dropShadow" result="shape"/>
</filter>
<clipPath id="clip0">
<path d="M140 125C140 121.686 142.686 119 146 119H216C219.314 119 222 121.686 222 125V128C222 131.314 219.314 134 216 134H146C142.686 134 140 131.314 140 128V125Z" fill="white"/>
</clipPath>
<clipPath id="clip1">
<path d="M230 125C230 121.686 232.686 119 236 119H315C318.314 119 321 121.686 321 125V128C321 131.314 318.314 134 315 134H236C232.686 134 230 131.314 230 128V125Z" fill="white"/>
</clipPath>
<clipPath id="clip2">
<path d="M330 125C330 121.686 332.686 119 336 119H410C413.314 119 416 121.686 416 125V128C416 131.314 413.314 134 410 134H336C332.686 134 330 131.314 330 128V125Z" fill="white"/>
</clipPath>
</defs>
</svg>
